<?xml version="1.0" encoding="utf-8"?><svg xmlns="http://www.w3.org/2000/svg" xmlns:xlink="http://www.w3.org/1999/xlink"><symbol viewBox="0 0 3351 570" fill-rule="evenodd" clip-rule="evenodd" stroke-linejoin="round" stroke-miterlimit="1.414" id="Scorenga" xmlns="http://www.w3.org/2000/svg"><path d="M577.352 507.302c59.141 0 87.705-30.193 87.705-70.28 0-81.83-125.839-58.496-125.839-93.335 0-13.145 11.183-22.018 31.231-22.018 22.349 0 46.022 7.557 63.752 23.996l25.93-34.168c-21.668-20.021-50.563-30.525-85.411-30.525-51.584 0-83.102 30.194-83.102 66.663 0 82.492 126.17 55.872 126.17 94.652 0 12.481-12.49 24.318-38.135 24.318-30.245 0-54.215-13.475-69.652-29.583l-25.278 35.493c20.362 20.675 50.555 34.787 92.63 34.787zm225.363 0c48.297 0 75.893-26.585 91.67-53.841l-40.087-19.394c-9.196 18.078-28.912 31.876-51.583 31.876-39.756 0-68.668-30.56-68.668-71.971 0-41.412 28.912-71.972 68.668-71.972 22.67 0 42.387 14.13 51.583 31.876l40.087-19.716c-15.446-27.256-43.373-53.519-91.67-53.519-65.705 0-116.59 45.962-116.59 113.33 0 67.37 50.885 113.331 116.59 113.331zm223.435 0c66.385 0 114.647-47.269 114.647-113.33 0-66.053-48.262-113.33-114.646-113.33-66.062 0-114.316 47.277-114.316 113.33 0 66.061 48.254 113.33 114.316 113.33zm0-41.36c-40.426 0-66.383-31.221-66.383-71.97 0-41.08 25.957-71.972 66.384-71.972 40.426 0 66.715 30.891 66.715 71.972 0 40.749-26.289 71.97-66.715 71.97zm324.913 37.42l-49.24-83.45c23.64-5.579 47.932-26.254 47.932-65.033 0-40.75-27.91-70.62-73.575-70.62h-102.487v219.103h46.606V425.49h34.186l43.068 77.872h53.51zm-81.777-118.9h-48.987v-59.176h48.987c18.731 0 32.869 11.175 32.869 29.593 0 18.409-14.138 29.583-32.87 29.583zm270.696 118.9v-41.028h-108.423v-49.657h106.122v-41.028h-106.122v-46.363h108.423v-41.028h-155.039v219.104h155.039zm232.614 0V284.258h-46.615V421.89l-101.564-137.632h-47.922v219.104h46.606V360.466l104.518 142.896h44.977zm149.512 4.271c39.764 0 70.96-16.413 93.283-41.359V382.17h-104.457v40.696h57.842v26.307c-8.873 8.22-27.274 16.77-46.668 16.77-39.773 0-68.694-30.586-68.694-71.963 0-41.403 28.921-71.98 68.694-71.98 23.334 0 42.066 13.153 51.924 28.608l38.735-21.05c-16.413-25.94-44.976-48.917-90.659-48.917-64.091 0-116.616 43.992-116.616 113.34 0 69.007 52.525 113.652 116.616 113.652zm334.771-4.271l-84.427-219.104h-58.47l-84.75 219.104h53.214l13.798-37.132h93.946l13.466 37.132h53.223zm-79.503-78.16h-68.319l34.16-94.328 34.16 94.328zm120.261 81.768c14.443 0 26.593-12.141 26.593-26.593 0-14.443-12.15-26.585-26.593-26.585-14.444 0-26.594 12.142-26.594 26.585 0 14.452 12.15 26.594 26.594 26.594zm169.838.332c48.298 0 75.894-26.585 91.662-53.841l-40.078-19.394c-9.205 18.078-28.912 31.876-51.584 31.876-39.755 0-68.667-30.56-68.667-71.971 0-41.412 28.912-71.972 68.667-71.972 22.672 0 42.38 14.13 51.584 31.876l40.078-19.716c-15.437-27.256-43.364-53.519-91.662-53.519-65.713 0-116.59 45.962-116.59 113.33 0 67.37 50.877 113.331 116.59 113.331zm223.436 0c66.384 0 114.638-47.269 114.638-113.33 0-66.053-48.254-113.33-114.638-113.33-66.061 0-114.315 47.277-114.315 113.33 0 66.061 48.254 113.33 114.315 113.33zm0-41.36c-40.426 0-66.392-31.221-66.392-71.97 0-41.08 25.966-71.972 66.392-71.972 40.418 0 66.716 30.891 66.716 71.972 0 40.749-26.298 71.97-66.716 71.97zm167.887 41.028c14.443 0 26.593-12.141 26.593-26.593 0-14.443-12.15-26.585-26.593-26.585s-26.594 12.142-26.594 26.585c0 14.452 12.15 26.594 26.594 26.594zm162.63.332c66.707 0 98.87-37.088 98.87-91.627V284.258h-47.591V414.36c0 30.56-17.424 51.584-51.279 51.584-33.854 0-51.6-21.024-51.6-51.584v-130.1h-47.27v131.748c0 53.876 32.172 91.295 98.87 91.295zm329.515-3.94l-92.978-116.285 87.068-102.819h-57.502l-77.533 97.885v-97.885h-46.615v219.104h46.615V436.02l17.085-20.37 66.366 87.713h57.494z" fill-rule="nonzero"/><path d="M247.785 337.902s1.743 2.97 2 6.437c4.625-5.233 16.98-19.742 21.129-24.57 4.149-4.83 10.936-13.61 13.357-19.183 2.422-5.571 2.216-8.528 5.526-11.833 3.31-3.306 15.123-11.505 19.843-15.053 4.72-3.548 7.736-6.947 8.906-10.255 1.17-3.308 1.937-9.762 3.62-13.61 1.686-3.848 2.48-9.708 13.385-12.318 10.905-2.61 38.04-9.122 44.235-11.333 6.195-2.21 26.005-9.46 34.162-18.272 4.564.752 34.61 4.109 53.016 5.37 18.406 1.26 67.054 3.078 83.525 1.686 16.473-1.391 24.648-5.672 32.269-12.695 7.621-7.023 18.66-21.375 24.838-33.276 6.18-11.9 17.25-35.115 20.936-41.49 4.748-1.547 8.882-2.684 12.307-9.41 3.431-6.726 8.352-17.599 13.17-20.903 13.565-7.181 30.947-19.566 25.629-58.006-3.422-24.68-25.103-33.332-38.617-34.322-5.19-2.172-11.11-3.768-14.566-4.387-3.456-.62-11.03-.997-14.253 1.26-3.226 2.258-12.742 6.443-15.424 7.106-2.681.663-16.924 3.784-19.523 5.014-2.6 1.23-4.575 2.523-6.942 2.474-2.367-.049-11.88-4.041-14.558-4.63-2.678-.591-27.786-6.417-39.968-7.16-12.183-.743-34.647-2.746-45.78-1.707-11.131 1.04-16.498 6.393-20.39 9.153-3.487 2.473-25.397 18.511-36.948 28.723-11.55 10.211-22.767 19.707-26.277 24.651-3.51 4.945-6.44 6.534-7.216 11.044-.777 4.511-2.044 9.163-8.669 10.508-6.625 1.346-36.99 5.966-56.454 10.208-19.464 4.24-31.061 7.27-35.081 8.683-4.02 1.414-8.904 2.548-17.484 10.227-11.266.545-50.31.492-66.694.811-16.384.319-44.492.228-53.091 4.677-4.57 2.365-3.66 6.223-1.759 9.013-6.094.092-16.933 1.758-24.175 4.865-7.91 3.393-21.51 11.682-21.777 21.854-.266 10.173.504 17.31.245 23.048-.926-5.747-1.373-7.472-1.883-10.11-1.138 5.236-9.028 29.81-11.764 38.351-2.737 8.541-8.194 26.258-10.352 32.513-2.159 6.254-3.252 9.525-3.55 11.406-2.457 1.633-4.928 2.395-6.025 4.465-1.099 2.07-1.973 4.308-2.937 7.504-.963 3.197-4.719 12.162-5.871 15.009-1.152 2.848-2.853 7.774-3.48 9.203-.627 1.428-4.53 6.026-6.364 7.395-1.834 1.369-10.785 8.852-12.342 10.39-1.556 1.539-4.165 4.6-4.863 6.463-.699 1.863-1.95 4.215-3.118 5.537-1.167 1.323-11.584 12.15-13.186 13.795C6.9 333.868-.38 340.638.015 344.697c.396 4.058 3.2 9.392 9.253 9.609 6.053.218 15.855.087 21.924-3.466 6.07-3.554 18.574-12.318 22.064-15.473 3.49-3.155 15.706-9.54 22.166-11.057 6.46-1.518 9.738-2.66 11.72-6.244 1.981-3.582 2.496-6.13.795-9.533-1.702-3.402-1.926-9.882-1.845-11.334.082-1.451.187-12.5 2.238-16.35 2.05-3.85 5.502-9.817 5.762-11.58.26-1.765-.575-2.704-.87-3.46.873-1.56 7.852-12.976 10.87-18.036 3.019-5.059 12.51-20.43 16.656-30.35 4.145-9.922 8.061-16.693 8.766-28.888 3.188-1.472 9.969-4.03 12.912-5.225 2.942-1.194 11.175-3.43 16.619 1.511 5.443 4.941 8.194 9.388 14.766 13.462 6.572 4.075 15.475 12.572 16.425 15.231.951 2.659 1.02 5.02 2.75 5.97 1.734.95 8.372.31 10.743 1.324 2.372 1.012 8.092 3.92 8.88 5.92.789 2 .39 6.592-.232 14.944-.622 8.353-5.029 19.635-7.354 23.05-2.325 3.415-5.557 7.228-4.34 13.097 1.217 5.868 5.521 12.716 9.01 17.2-2.15 5.927-7.226 20.255-8.924 26.186-2.453 3.2-11.53 10.572-12.238 14.805-.709 4.233-.953 11.06-1.647 13.183-.693 2.123-3.84 11.653-5.824 13.54-1.984 1.887-13.457 11.36-18.177 16.576-5.467 6.044-13.781 14.115-18.885 23.417-5.412 9.863-7.608 17.482-10.268 22.222-2.66 4.74-11.064 16.115-14.606 19.877-3.542 3.762-10.35 13.41-12.008 15.303-1.66 1.892-19.27 19.464-22.038 22.336-2.768 2.872-9.5 8.809-15.008 17.168-3.707 5.625-17.971 27.273-20.714 34.633-2.745 7.361-6.295 11.69-6.29 20.388.004 4.247 5.854 9.047 9.16 12.547 3.304 3.5 8.975 2.941 12.74.162 3.764-2.78 12.556-9.862 14.852-12.27a123.209 123.209 0 0 0 5.338-5.958c2.236.71 5.313 3.038 6.066 1.91.753-1.129 5.667-18.59 6.872-23.31 1.205-4.722 3.812-14.87 5.538-19.922 9.783-10.208 22.043-22.975 27.343-27.314 5.3-4.339 21.964-19.85 28.79-26.532 6.824-6.681 27.716-28.994 34.258-36.652 6.542-7.657 23.317-28.497 28.344-35.615 5.026-7.117 6.758-9.684 8.088-23.026 2.068-1.142 5.882-4.895 8.33-7.577 2.449-2.683 6.265-8.291 9-13.194zM446.59 99.148c-3.3 1.725-5.162 3.017-7.716 3.676-.291-4.305-3.736-18.865-3.736-18.865 2.83-3.292 22.16-24.165 25.323-27.75 3.163-3.586 11.315-13.75 12.063-17.017.748-3.268.695-4.696 1.032-9.281 2.349.084 19.004 2.836 30.528 3.425 11.523.59 23.871-.05 26.98-.609 3.11-.558 13.67-.16 16.137 1.251 2.468 1.411 14.891 13.178 18.937 13.35 4.045.172 8.359-1.07 14.021 6.085-1.564 22.3 5.96 41.016 39.66 47.59-1.4 2.225-2.895 3.752-3.128 5.783-.233 2.03-1.516 4.76-4.13 6.486-2.615 1.727-6.085 6.626-8.376 9.046-2.29 2.42-17.307 17.584-20.545 21.649-3.236 4.065-18.985 21.667-20.424 25.574-7.618-.351-25.847-1.316-45.764-2.197-19.917-.88-28.8-.48-33.828.145-5.029.625-5.626.645-7.804-1.23-2.18-1.874-6.347-7.98-6.496-11.481 6.99-.55 17.808-1.253 21.885-2.243 4.077-.99 5.696-1.684 7.447-2.948 1.75-1.265 5.907-4.847 6.815-6.155.907-1.309.07-2.735-.886-2.97 2.196-1.328 3.17-1.882 4.011-2.813.84-.931 2.996-2.716 3.757-10.174.76-7.46 1.805-17.008-2.18-23.845-3.985-6.837-13.358-12.916-29.78-11.49-5.855.508-14.399 3.486-16.562 4.373-2.402-1.075-3.408-2.016-6.801-1.933-3.394.084-7.141 2.844-10.44 4.568z"/></symbol><symbol viewBox="0 0 3351 570" fill-rule="evenodd" clip-rule="evenodd" stroke-linejoin="round" stroke-miterlimit="1.414" id="Scorenga-footer" xmlns="http://www.w3.org/2000/svg"><path d="M577.352 507.302c59.141 0 87.705-30.193 87.705-70.28 0-81.83-125.839-58.496-125.839-93.335 0-13.145 11.183-22.018 31.231-22.018 22.349 0 46.022 7.557 63.752 23.996l25.93-34.168c-21.668-20.021-50.563-30.525-85.411-30.525-51.584 0-83.102 30.194-83.102 66.663 0 82.492 126.17 55.872 126.17 94.652 0 12.481-12.49 24.318-38.135 24.318-30.245 0-54.215-13.475-69.652-29.583l-25.278 35.493c20.362 20.675 50.555 34.787 92.63 34.787zm225.363 0c48.297 0 75.893-26.585 91.67-53.841l-40.087-19.394c-9.196 18.078-28.912 31.876-51.583 31.876-39.756 0-68.668-30.56-68.668-71.971 0-41.412 28.912-71.972 68.668-71.972 22.67 0 42.387 14.13 51.583 31.876l40.087-19.716c-15.446-27.256-43.373-53.519-91.67-53.519-65.705 0-116.59 45.962-116.59 113.33 0 67.37 50.885 113.331 116.59 113.331zm223.435 0c66.385 0 114.647-47.269 114.647-113.33 0-66.053-48.262-113.33-114.646-113.33-66.062 0-114.316 47.277-114.316 113.33 0 66.061 48.254 113.33 114.316 113.33zm0-41.36c-40.426 0-66.383-31.221-66.383-71.97 0-41.08 25.957-71.972 66.384-71.972 40.426 0 66.715 30.891 66.715 71.972 0 40.749-26.289 71.97-66.715 71.97zm324.913 37.42l-49.24-83.45c23.64-5.579 47.932-26.254 47.932-65.033 0-40.75-27.91-70.62-73.575-70.62h-102.487v219.103h46.606V425.49h34.186l43.068 77.872h53.51zm-81.777-118.9h-48.987v-59.176h48.987c18.731 0 32.869 11.175 32.869 29.593 0 18.409-14.138 29.583-32.87 29.583zm270.696 118.9v-41.028h-108.423v-49.657h106.122v-41.028h-106.122v-46.363h108.423v-41.028h-155.039v219.104h155.039zm232.614 0V284.258h-46.615V421.89l-101.564-137.632h-47.922v219.104h46.606V360.466l104.518 142.896h44.977zm149.512 4.271c39.764 0 70.96-16.413 93.283-41.359V382.17h-104.457v40.696h57.842v26.307c-8.873 8.22-27.274 16.77-46.668 16.77-39.773 0-68.694-30.586-68.694-71.963 0-41.403 28.921-71.98 68.694-71.98 23.334 0 42.066 13.153 51.924 28.608l38.735-21.05c-16.413-25.94-44.976-48.917-90.659-48.917-64.091 0-116.616 43.992-116.616 113.34 0 69.007 52.525 113.652 116.616 113.652zm334.771-4.271l-84.427-219.104h-58.47l-84.75 219.104h53.214l13.798-37.132h93.946l13.466 37.132h53.223zm-79.503-78.16h-68.319l34.16-94.328 34.16 94.328zm120.261 81.768c14.443 0 26.593-12.141 26.593-26.593 0-14.443-12.15-26.585-26.593-26.585-14.444 0-26.594 12.142-26.594 26.585 0 14.452 12.15 26.594 26.594 26.594zm169.838.332c48.298 0 75.894-26.585 91.662-53.841l-40.078-19.394c-9.205 18.078-28.912 31.876-51.584 31.876-39.755 0-68.667-30.56-68.667-71.971 0-41.412 28.912-71.972 68.667-71.972 22.672 0 42.38 14.13 51.584 31.876l40.078-19.716c-15.437-27.256-43.364-53.519-91.662-53.519-65.713 0-116.59 45.962-116.59 113.33 0 67.37 50.877 113.331 116.59 113.331zm223.436 0c66.384 0 114.638-47.269 114.638-113.33 0-66.053-48.254-113.33-114.638-113.33-66.061 0-114.315 47.277-114.315 113.33 0 66.061 48.254 113.33 114.315 113.33zm0-41.36c-40.426 0-66.392-31.221-66.392-71.97 0-41.08 25.966-71.972 66.392-71.972 40.418 0 66.716 30.891 66.716 71.972 0 40.749-26.298 71.97-66.716 71.97zm167.887 41.028c14.443 0 26.593-12.141 26.593-26.593 0-14.443-12.15-26.585-26.593-26.585s-26.594 12.142-26.594 26.585c0 14.452 12.15 26.594 26.594 26.594zm162.63.332c66.707 0 98.87-37.088 98.87-91.627V284.258h-47.591V414.36c0 30.56-17.424 51.584-51.279 51.584-33.854 0-51.6-21.024-51.6-51.584v-130.1h-47.27v131.748c0 53.876 32.172 91.295 98.87 91.295zm329.515-3.94l-92.978-116.285 87.068-102.819h-57.502l-77.533 97.885v-97.885h-46.615v219.104h46.615V436.02l17.085-20.37 66.366 87.713h57.494z" fill-rule="nonzero"/><path d="M247.785 337.902s1.743 2.97 2 6.437c4.625-5.233 16.98-19.742 21.129-24.57 4.149-4.83 10.936-13.61 13.357-19.183 2.422-5.571 2.216-8.528 5.526-11.833 3.31-3.306 15.123-11.505 19.843-15.053 4.72-3.548 7.736-6.947 8.906-10.255 1.17-3.308 1.937-9.762 3.62-13.61 1.686-3.848 2.48-9.708 13.385-12.318 10.905-2.61 38.04-9.122 44.235-11.333 6.195-2.21 26.005-9.46 34.162-18.272 4.564.752 34.61 4.109 53.016 5.37 18.406 1.26 67.054 3.078 83.525 1.686 16.473-1.391 24.648-5.672 32.269-12.695 7.621-7.023 18.66-21.375 24.838-33.276 6.18-11.9 17.25-35.115 20.936-41.49 4.748-1.547 8.882-2.684 12.307-9.41 3.431-6.726 8.352-17.599 13.17-20.903 13.565-7.181 30.947-19.566 25.629-58.006-3.422-24.68-25.103-33.332-38.617-34.322-5.19-2.172-11.11-3.768-14.566-4.387-3.456-.62-11.03-.997-14.253 1.26-3.226 2.258-12.742 6.443-15.424 7.106-2.681.663-16.924 3.784-19.523 5.014-2.6 1.23-4.575 2.523-6.942 2.474-2.367-.049-11.88-4.041-14.558-4.63-2.678-.591-27.786-6.417-39.968-7.16-12.183-.743-34.647-2.746-45.78-1.707-11.131 1.04-16.498 6.393-20.39 9.153-3.487 2.473-25.397 18.511-36.948 28.723-11.55 10.211-22.767 19.707-26.277 24.651-3.51 4.945-6.44 6.534-7.216 11.044-.777 4.511-2.044 9.163-8.669 10.508-6.625 1.346-36.99 5.966-56.454 10.208-19.464 4.24-31.061 7.27-35.081 8.683-4.02 1.414-8.904 2.548-17.484 10.227-11.266.545-50.31.492-66.694.811-16.384.319-44.492.228-53.091 4.677-4.57 2.365-3.66 6.223-1.759 9.013-6.094.092-16.933 1.758-24.175 4.865-7.91 3.393-21.51 11.682-21.777 21.854-.266 10.173.504 17.31.245 23.048-.926-5.747-1.373-7.472-1.883-10.11-1.138 5.236-9.028 29.81-11.764 38.351-2.737 8.541-8.194 26.258-10.352 32.513-2.159 6.254-3.252 9.525-3.55 11.406-2.457 1.633-4.928 2.395-6.025 4.465-1.099 2.07-1.973 4.308-2.937 7.504-.963 3.197-4.719 12.162-5.871 15.009-1.152 2.848-2.853 7.774-3.48 9.203-.627 1.428-4.53 6.026-6.364 7.395-1.834 1.369-10.785 8.852-12.342 10.39-1.556 1.539-4.165 4.6-4.863 6.463-.699 1.863-1.95 4.215-3.118 5.537-1.167 1.323-11.584 12.15-13.186 13.795C6.9 333.868-.38 340.638.015 344.697c.396 4.058 3.2 9.392 9.253 9.609 6.053.218 15.855.087 21.924-3.466 6.07-3.554 18.574-12.318 22.064-15.473 3.49-3.155 15.706-9.54 22.166-11.057 6.46-1.518 9.738-2.66 11.72-6.244 1.981-3.582 2.496-6.13.795-9.533-1.702-3.402-1.926-9.882-1.845-11.334.082-1.451.187-12.5 2.238-16.35 2.05-3.85 5.502-9.817 5.762-11.58.26-1.765-.575-2.704-.87-3.46.873-1.56 7.852-12.976 10.87-18.036 3.019-5.059 12.51-20.43 16.656-30.35 4.145-9.922 8.061-16.693 8.766-28.888 3.188-1.472 9.969-4.03 12.912-5.225 2.942-1.194 11.175-3.43 16.619 1.511 5.443 4.941 8.194 9.388 14.766 13.462 6.572 4.075 15.475 12.572 16.425 15.231.951 2.659 1.02 5.02 2.75 5.97 1.734.95 8.372.31 10.743 1.324 2.372 1.012 8.092 3.92 8.88 5.92.789 2 .39 6.592-.232 14.944-.622 8.353-5.029 19.635-7.354 23.05-2.325 3.415-5.557 7.228-4.34 13.097 1.217 5.868 5.521 12.716 9.01 17.2-2.15 5.927-7.226 20.255-8.924 26.186-2.453 3.2-11.53 10.572-12.238 14.805-.709 4.233-.953 11.06-1.647 13.183-.693 2.123-3.84 11.653-5.824 13.54-1.984 1.887-13.457 11.36-18.177 16.576-5.467 6.044-13.781 14.115-18.885 23.417-5.412 9.863-7.608 17.482-10.268 22.222-2.66 4.74-11.064 16.115-14.606 19.877-3.542 3.762-10.35 13.41-12.008 15.303-1.66 1.892-19.27 19.464-22.038 22.336-2.768 2.872-9.5 8.809-15.008 17.168-3.707 5.625-17.971 27.273-20.714 34.633-2.745 7.361-6.295 11.69-6.29 20.388.004 4.247 5.854 9.047 9.16 12.547 3.304 3.5 8.975 2.941 12.74.162 3.764-2.78 12.556-9.862 14.852-12.27a123.209 123.209 0 0 0 5.338-5.958c2.236.71 5.313 3.038 6.066 1.91.753-1.129 5.667-18.59 6.872-23.31 1.205-4.722 3.812-14.87 5.538-19.922 9.783-10.208 22.043-22.975 27.343-27.314 5.3-4.339 21.964-19.85 28.79-26.532 6.824-6.681 27.716-28.994 34.258-36.652 6.542-7.657 23.317-28.497 28.344-35.615 5.026-7.117 6.758-9.684 8.088-23.026 2.068-1.142 5.882-4.895 8.33-7.577 2.449-2.683 6.265-8.291 9-13.194zM446.59 99.148c-3.3 1.725-5.162 3.017-7.716 3.676-.291-4.305-3.736-18.865-3.736-18.865 2.83-3.292 22.16-24.165 25.323-27.75 3.163-3.586 11.315-13.75 12.063-17.017.748-3.268.695-4.696 1.032-9.281 2.349.084 19.004 2.836 30.528 3.425 11.523.59 23.871-.05 26.98-.609 3.11-.558 13.67-.16 16.137 1.251 2.468 1.411 14.891 13.178 18.937 13.35 4.045.172 8.359-1.07 14.021 6.085-1.564 22.3 5.96 41.016 39.66 47.59-1.4 2.225-2.895 3.752-3.128 5.783-.233 2.03-1.516 4.76-4.13 6.486-2.615 1.727-6.085 6.626-8.376 9.046-2.29 2.42-17.307 17.584-20.545 21.649-3.236 4.065-18.985 21.667-20.424 25.574-7.618-.351-25.847-1.316-45.764-2.197-19.917-.88-28.8-.48-33.828.145-5.029.625-5.626.645-7.804-1.23-2.18-1.874-6.347-7.98-6.496-11.481 6.99-.55 17.808-1.253 21.885-2.243 4.077-.99 5.696-1.684 7.447-2.948 1.75-1.265 5.907-4.847 6.815-6.155.907-1.309.07-2.735-.886-2.97 2.196-1.328 3.17-1.882 4.011-2.813.84-.931 2.996-2.716 3.757-10.174.76-7.46 1.805-17.008-2.18-23.845-3.985-6.837-13.358-12.916-29.78-11.49-5.855.508-14.399 3.486-16.562 4.373-2.402-1.075-3.408-2.016-6.801-1.933-3.394.084-7.141 2.844-10.44 4.568z"/></symbol><symbol viewBox="0 0 26 22" id="github" xmlns="http://www.w3.org/2000/svg"><path d="M25.047 17.422C22.984 21.594 17.313 22 13.25 22 9.125 22 3.109 21.641.969 17.422.172 15.844 0 13.984 0 12.25c0-2.281.625-4.438 2.125-6.188a8.585 8.585 0 0 1-.422-2.656c0-1.172.266-2.343.797-3.406 2.469 0 4.047 1.078 5.922 2.547A20.895 20.895 0 0 1 13.25 2c1.469 0 2.953.156 4.375.5C19.484 1.047 21.063 0 23.5 0a7.629 7.629 0 0 1 .797 3.406c0 .891-.141 1.781-.422 2.625C25.375 7.797 26 9.969 26 12.25c0 1.734-.172 3.578-.953 5.172zM18.5 10.5c-1.031 0-2.016.188-3.047.328-.812.125-1.625.172-2.453.172s-1.641-.047-2.453-.172c-1.016-.14-2.016-.328-3.047-.328-2.547 0-4 2.109-4 4.5 0 4.781 4.375 5.516 8.188 5.516h2.625c3.813 0 8.188-.734 8.188-5.516-.001-2.391-1.454-4.5-4.001-4.5zM8 18c-1.406 0-2-1.859-2-3s.594-3 2-3 2 1.859 2 3-.594 3-2 3zm10 0c-1.406 0-2-1.859-2-3s.594-3 2-3 2 1.859 2 3-.594 3-2 3z"/></symbol><symbol class="dsvg-inline--fa dfa-arrow-left dfa-w-14" viewBox="0 0 448 512" id="left" xmlns="http://www.w3.org/2000/svg"><path d="M257.5 445.1l-22.2 22.2c-9.4 9.4-24.6 9.4-33.9 0L7 273c-9.4-9.4-9.4-24.6 0-33.9L201.4 44.7c9.4-9.4 24.6-9.4 33.9 0l22.2 22.2c9.5 9.5 9.3 25-.4 34.3L136.6 216H424c13.3 0 24 10.7 24 24v32c0 13.3-10.7 24-24 24H136.6l120.5 114.8c9.8 9.3 10 24.8.4 34.3z"/></symbol><symbol class="esvg-inline--fa efa-arrow-right efa-w-14" viewBox="0 0 448 512" id="right" xmlns="http://www.w3.org/2000/svg"><path d="M190.5 66.9l22.2-22.2c9.4-9.4 24.6-9.4 33.9 0L441 239c9.4 9.4 9.4 24.6 0 33.9L246.6 467.3c-9.4 9.4-24.6 9.4-33.9 0l-22.2-22.2c-9.5-9.5-9.3-25 .4-34.3L311.4 296H24c-13.3 0-24-10.7-24-24v-32c0-13.3 10.7-24 24-24h287.4L190.9 101.2c-9.8-9.3-10-24.8-.4-34.3z"/></symbol></svg>