<?xml version="1.0" encoding="UTF-8" standalone="no"?>
<!DOCTYPE svg PUBLIC "-//W3C//DTD SVG 1.1//EN" "http://www.w3.org/Graphics/SVG/1.1/DTD/svg11.dtd">
<svg width="300px" height="51px" fill="#38003c" viewBox="0 0 3351 570" version="1.1" xmlns="http://www.w3.org/2000/svg" xmlns:xlink="http://www.w3.org/1999/xlink" xml:space="preserve" xmlns:serif="http://www.serif.com/" style="fill-rule:evenodd;clip-rule:evenodd;stroke-linejoin:round;stroke-miterlimit:1.41421;">
    <g transform="matrix(1,0,0,1,-244.529,-795.183)">
        <g transform="matrix(1,0,0,1,23.8458,-72.5662)">
            <g transform="matrix(8.71639,0,0,8.71639,-478.227,-258.836)">
                <path d="M146.421,187.45C153.206,187.45 156.483,183.986 156.483,179.387C156.483,169.999 142.046,172.676 142.046,168.679C142.046,167.171 143.329,166.153 145.629,166.153C148.193,166.153 150.909,167.02 152.943,168.906L155.918,164.986C153.432,162.689 150.117,161.484 146.119,161.484C140.201,161.484 136.585,164.948 136.585,169.132C136.585,178.596 151.06,175.542 151.06,179.991C151.06,181.423 149.627,182.781 146.685,182.781C143.215,182.781 140.465,181.235 138.694,179.387L135.794,183.459C138.13,185.831 141.594,187.45 146.421,187.45Z" style="fill-rule:nonzero;"/>
                <path d="M172.276,187.45C177.817,187.45 180.983,184.4 182.793,181.273L178.194,179.048C177.139,181.122 174.877,182.705 172.276,182.705C167.715,182.705 164.398,179.199 164.398,174.448C164.398,169.697 167.715,166.191 172.276,166.191C174.877,166.191 177.139,167.812 178.194,169.848L182.793,167.586C181.021,164.459 177.817,161.446 172.276,161.446C164.738,161.446 158.9,166.719 158.9,174.448C158.9,182.177 164.738,187.45 172.276,187.45Z" style="fill-rule:nonzero;"/>
                <path d="M197.91,187.45C205.526,187.45 211.063,182.027 211.063,174.448C211.063,166.87 205.526,161.446 197.91,161.446C190.331,161.446 184.795,166.87 184.795,174.448C184.795,182.027 190.331,187.45 197.91,187.45ZM197.91,182.705C193.272,182.705 190.294,179.123 190.294,174.448C190.294,169.735 193.272,166.191 197.91,166.191C202.548,166.191 205.564,169.735 205.564,174.448C205.564,179.123 202.548,182.705 197.91,182.705Z" style="fill-rule:nonzero;"/>
                <path d="M235.186,186.998L229.537,177.424C232.249,176.784 235.036,174.412 235.036,169.963C235.036,165.288 231.834,161.861 226.595,161.861L214.837,161.861L214.837,186.998L220.184,186.998L220.184,178.064L224.106,178.064L229.047,186.998L235.186,186.998ZM225.804,173.357L220.184,173.357L220.184,166.568L225.804,166.568C227.953,166.568 229.575,167.85 229.575,169.963C229.575,172.075 227.953,173.357 225.804,173.357Z" style="fill-rule:nonzero;"/>
                <path d="M256.86,186.998L256.86,182.291L244.421,182.291L244.421,176.594L256.596,176.594L256.596,171.887L244.421,171.887L244.421,166.568L256.86,166.568L256.86,161.861L239.073,161.861L239.073,186.998L256.86,186.998Z" style="fill-rule:nonzero;"/>
                <path d="M283.547,186.998L283.547,161.861L278.199,161.861L278.199,177.651L266.547,161.861L261.049,161.861L261.049,186.998L266.396,186.998L266.396,170.604L278.387,186.998L283.547,186.998Z" style="fill-rule:nonzero;"/>
                <path d="M300.7,187.488C305.262,187.488 308.841,185.605 311.402,182.743L311.402,173.094L299.418,173.094L299.418,177.763L306.054,177.763L306.054,180.781C305.036,181.724 302.925,182.705 300.7,182.705C296.137,182.705 292.819,179.196 292.819,174.449C292.819,169.699 296.137,166.191 300.7,166.191C303.377,166.191 305.526,167.7 306.657,169.473L311.101,167.058C309.218,164.082 305.941,161.446 300.7,161.446C293.347,161.446 287.321,166.493 287.321,174.449C287.321,182.366 293.347,187.488 300.7,187.488Z" style="fill-rule:nonzero;"/>
                <path d="M339.107,186.998L329.421,161.861L322.713,161.861L312.99,186.998L319.095,186.998L320.678,182.738L331.456,182.738L333.001,186.998L339.107,186.998ZM329.986,178.031L322.148,178.031L326.067,167.209L329.986,178.031Z" style="fill-rule:nonzero;"/>
                <path d="M343.783,187.412C345.44,187.412 346.834,186.019 346.834,184.361C346.834,182.704 345.44,181.311 343.783,181.311C342.126,181.311 340.732,182.704 340.732,184.361C340.732,186.019 342.126,187.412 343.783,187.412Z" style="fill-rule:nonzero;"/>
                <path d="M363.268,187.45C368.809,187.45 371.975,184.4 373.784,181.273L369.186,179.048C368.13,181.122 365.869,182.705 363.268,182.705C358.707,182.705 355.39,179.199 355.39,174.448C355.39,169.697 358.707,166.191 363.268,166.191C365.869,166.191 368.13,167.812 369.186,169.848L373.784,167.586C372.013,164.459 368.809,161.446 363.268,161.446C355.729,161.446 349.892,166.719 349.892,174.448C349.892,182.177 355.729,187.45 363.268,187.45Z" style="fill-rule:nonzero;"/>
                <path d="M388.902,187.45C396.518,187.45 402.054,182.027 402.054,174.448C402.054,166.87 396.518,161.446 388.902,161.446C381.323,161.446 375.787,166.87 375.787,174.448C375.787,182.027 381.323,187.45 388.902,187.45ZM388.902,182.705C384.264,182.705 381.285,179.123 381.285,174.448C381.285,169.735 384.264,166.191 388.902,166.191C393.539,166.191 396.556,169.735 396.556,174.448C396.556,179.123 393.539,182.705 388.902,182.705Z" style="fill-rule:nonzero;"/>
                <path d="M408.163,187.412C409.82,187.412 411.214,186.019 411.214,184.361C411.214,182.704 409.82,181.311 408.163,181.311C406.506,181.311 405.112,182.704 405.112,184.361C405.112,186.019 406.506,187.412 408.163,187.412Z" style="fill-rule:nonzero;"/>
                <path d="M426.821,187.45C434.474,187.45 438.164,183.195 438.164,176.938L438.164,161.861L432.704,161.861L432.704,176.787C432.704,180.293 430.705,182.705 426.821,182.705C422.937,182.705 420.901,180.293 420.901,176.787L420.901,161.861L415.478,161.861L415.478,176.976C415.478,183.157 419.169,187.45 426.821,187.45Z" style="fill-rule:nonzero;"/>
                <path d="M464.625,186.998L453.958,173.657L463.947,161.861L457.35,161.861L448.455,173.091L448.455,161.861L443.107,161.861L443.107,186.998L448.455,186.998L448.455,179.272L450.415,176.935L458.029,186.998L464.625,186.998Z" style="fill-rule:nonzero;"/>
            </g>
            <g transform="matrix(0.698578,0.022307,-0.022307,0.698578,129.049,1040.2)">
                <path d="M492.932,221.1C492.932,221.1 495.56,225.266 496.087,230.213C502.461,222.519 519.465,201.206 525.178,194.112C530.891,187.017 540.196,174.15 543.404,166.071C546.613,157.993 546.183,153.775 550.765,148.897C555.347,144.019 571.866,131.754 578.454,126.465C585.042,121.176 589.199,116.177 590.722,111.393C592.244,106.61 593.045,97.345 595.278,91.765C597.512,86.186 598.379,77.769 613.855,73.539C629.33,69.309 667.836,58.757 676.594,55.313C685.353,51.87 713.35,40.598 724.613,27.624C731.173,28.49 774.292,31.919 800.672,32.881C827.051,33.843 896.701,34.221 920.192,31.479C943.684,28.737 955.179,22.242 965.757,11.851C976.335,1.46 991.465,-19.568 999.756,-36.868C1008.05,-54.169 1022.82,-87.871 1027.8,-97.155C1034.52,-99.585 1040.38,-101.399 1044.97,-111.175C1049.57,-120.95 1056.11,-136.722 1062.85,-141.668C1081.92,-152.556 1106.21,-171.06 1096.85,-225.788C1090.83,-260.923 1059.43,-272.307 1040.06,-273.106C1032.54,-275.974 1024,-277.986 1019.03,-278.714C1014.06,-279.442 1003.21,-279.636 998.705,-276.26C994.196,-272.885 980.778,-266.466 976.973,-265.395C973.169,-264.324 952.945,-259.211 949.284,-257.333C945.623,-255.455 942.857,-253.516 939.47,-253.478C936.083,-253.44 922.296,-258.715 918.44,-259.436C914.584,-260.158 878.413,-267.342 860.958,-267.848C843.502,-268.355 811.286,-270.193 795.414,-268.199C779.543,-266.205 772.113,-258.304 766.673,-254.179C761.8,-250.484 731.2,-226.548 715.149,-211.418C699.099,-196.288 683.491,-182.197 678.697,-174.966C673.904,-167.734 669.788,-165.328 668.883,-158.843C667.978,-152.357 666.379,-145.647 656.966,-143.421C647.554,-141.194 604.342,-133.2 576.702,-126.246C549.061,-119.292 532.615,-114.432 526.931,-112.226C521.247,-110.021 514.315,-108.177 502.396,-96.804C486.311,-95.509 430.475,-93.802 407.059,-92.598C383.644,-91.394 343.445,-90.241 331.351,-83.485C324.924,-79.895 326.402,-74.42 329.248,-70.516C320.538,-70.107 305.114,-67.229 294.899,-62.455C283.743,-57.242 264.672,-44.768 264.756,-30.209C264.84,-15.65 266.267,-5.479 266.158,2.738C264.571,-5.438 263.854,-7.884 263.004,-11.632C261.615,-4.094 251.455,31.407 247.932,43.747C244.409,56.086 237.414,81.671 234.613,90.714C231.812,99.756 230.398,104.483 230.057,107.187C226.619,109.634 223.12,110.836 221.645,113.847C220.169,116.858 219.021,120.098 217.789,124.712C216.557,129.327 211.596,142.319 210.078,146.443C208.56,150.568 206.353,157.691 205.521,159.762C204.69,161.834 199.32,168.587 196.759,170.628C194.198,172.669 181.74,183.779 179.584,186.05C177.429,188.321 173.838,192.817 172.925,195.514C172.011,198.21 170.328,201.63 168.719,203.575C167.11,205.52 152.709,221.477 150.493,223.904C148.276,226.331 138.176,236.344 138.926,242.13C139.677,247.916 143.93,255.415 152.596,255.449C161.262,255.484 175.274,254.849 183.79,249.491C192.307,244.132 209.788,231.028 214.635,226.358C219.481,221.687 236.66,211.999 245.829,209.534C254.998,207.068 259.632,205.284 262.303,200.07C264.973,194.856 265.592,191.188 263.004,186.4C260.416,181.613 259.799,172.357 259.849,170.277C259.9,168.198 259.546,152.393 262.303,146.794C265.059,141.195 269.722,132.504 270.014,129.97C270.305,127.435 269.068,126.13 268.612,125.063C269.789,122.792 279.247,106.148 283.333,98.775C287.418,91.403 300.29,68.989 305.765,54.612C311.239,40.235 316.53,30.374 316.981,12.903C321.473,10.652 331.053,6.684 335.207,4.841C339.36,2.999 351.031,-0.574 359.041,6.243C367.051,13.06 371.188,19.294 380.772,24.82C390.356,30.346 403.476,42.091 404.956,45.85C406.437,49.609 406.642,52.981 409.162,54.262C411.683,55.542 421.147,54.323 424.584,55.664C428.022,57.004 436.334,60.901 437.553,63.725C438.772,66.55 438.411,73.133 437.903,85.106C437.396,97.079 431.609,113.413 428.44,118.403C425.27,123.393 420.823,128.994 422.832,137.33C424.84,145.667 431.307,155.262 436.501,161.515C433.698,170.089 427.093,190.81 424.935,199.369C421.573,204.058 408.931,215.014 408.111,221.1C407.291,227.186 407.253,236.959 406.358,240.027C405.464,243.095 401.398,256.866 398.647,259.655C395.897,262.444 379.922,276.515 373.411,284.19C365.869,293.082 354.348,305.004 347.474,318.539C340.186,332.89 337.393,343.885 333.805,350.785C330.217,357.685 318.72,374.335 313.826,379.877C308.933,385.419 299.639,399.527 297.353,402.309C295.066,405.091 270.686,431.023 266.859,435.256C263.032,439.489 253.675,448.287 246.18,460.492C241.136,468.705 221.727,500.313 218.14,510.964C214.552,521.616 209.673,527.967 210.078,540.406C210.276,546.48 218.861,553.076 223.748,557.931C228.634,562.786 236.717,561.727 241.974,557.581C247.231,553.434 259.479,542.904 262.653,539.355C265.827,535.805 268.288,532.797 270.014,530.592C273.244,531.505 277.751,534.694 278.776,533.046C279.802,531.398 286.031,506.203 287.539,499.398C289.046,492.592 292.311,477.96 294.549,470.657C308.073,455.613 325.021,436.796 332.403,430.349C339.784,423.902 362.905,400.959 372.36,391.093C381.815,381.227 410.672,348.365 419.677,337.116C428.683,325.867 451.72,295.299 458.583,284.891C465.446,274.484 467.805,270.734 469.098,251.594C472.003,249.867 477.286,244.325 480.665,240.378C484.043,236.43 489.244,228.236 492.932,221.1ZM766.323,-129.401C761.683,-126.784 759.08,-124.852 755.457,-123.793C754.844,-129.935 749.253,-150.599 749.253,-150.599C753.15,-155.436 779.838,-186.168 784.198,-191.439C788.558,-196.711 799.751,-211.618 800.672,-216.325C801.592,-221.032 801.451,-223.072 801.723,-229.644C805.086,-229.631 829.03,-226.455 845.536,-226.139C862.041,-225.823 879.67,-227.302 884.091,-228.242C888.512,-229.182 903.63,-229.095 907.224,-227.19C910.817,-225.285 929.12,-209.026 934.913,-208.964C940.706,-208.903 946.818,-210.876 955.242,-200.903C954.023,-168.942 965.636,-142.521 1014.13,-134.658C1012.23,-131.414 1010.16,-129.161 1009.92,-126.246C1009.68,-123.332 1007.97,-119.371 1004.31,-116.783C1000.65,-114.194 995.911,-107.03 992.746,-103.464C989.581,-99.898 968.799,-77.529 964.355,-71.568C959.912,-65.607 938.195,-39.716 936.315,-34.064C925.406,-34.218 899.294,-34.766 870.772,-35.116C842.25,-35.465 829.564,-34.486 822.403,-33.363C815.241,-32.241 814.388,-32.184 811.187,-34.765C807.985,-37.347 801.747,-45.887 801.373,-50.888C811.345,-51.993 826.782,-53.493 832.567,-55.094C838.353,-56.696 840.636,-57.763 843.082,-59.651C845.528,-61.539 851.308,-66.852 852.546,-68.764C853.784,-70.676 852.522,-72.678 851.144,-72.97C854.224,-74.969 855.592,-75.806 856.752,-77.176C857.911,-78.546 860.911,-81.196 861.659,-91.897C862.406,-102.598 863.464,-116.3 857.453,-125.896C851.442,-135.491 837.761,-143.756 814.341,-140.967C805.993,-139.973 793.911,-135.325 790.858,-133.957C787.374,-135.384 785.892,-136.685 781.044,-136.411C776.195,-136.136 770.962,-132.017 766.323,-129.401Z"/>
            </g>
        </g>
    </g>
</svg>
